<svg xmlns="http://www.w3.org/2000/svg" width="165.73068mm" height="156.45262mm" viewBox="0 0 165.73068 156.45262"><defs><linearGradient id="a"><stop offset="0" style="stop-color:#1d6b40;stop-opacity:1"/><stop offset="1" style="stop-color:#217748;stop-opacity:1"/></linearGradient><linearGradient id="b" x1="110.82898" x2="110.82898" y1="729.64789" y2="596.07373" gradientTransform="matrix(0 -.70582 .70582 0 -487.113 134.254)" gradientUnits="userSpaceOnUse" href="#a"/></defs><g style="fill:#fff;fill-opacity:1;stroke:none" transform="matrix(.70582 0 0 .70582 67.12 -377.031)"><path d="M0 560.896h133.575v168.75H0z" class="st1" style="fill:#fff;stroke:none;stroke-width:.25;fill-opacity:1"/></g><g style="fill:#1f7144;fill-opacity:1;stroke:none" transform="matrix(.70582 0 0 .70582 56.83 -373.86)"><path d="M9.48 551.34c-5.25 0-9.48 4.21-9.48 9.45V720.2c0 5.23 4.23 9.45 9.48 9.45h135.33c5.25 0 9.48-4.22 9.48-9.45V560.79c0-5.24-4.23-9.45-9.48-9.45zm-1.9 7.83h139.05v162.56H7.58Z" class="st4" style="fill:#1f7144;stroke:none;stroke-width:.683161;stroke-linecap:round;stroke-linejoin:round;fill-opacity:1"/></g><g style="fill:#1f7144;fill-opacity:1;stroke:none" transform="matrix(.70582 0 0 .70582 90.074 -390.02)"><g style="fill:#1f7144;fill-opacity:1;stroke:none" transform="translate(45.385 -111.731)"><path d="M0 709.429h37.442v20.217H0z" class="st5" style="fill:#1f7144;stroke:none;stroke-width:.25;fill-opacity:1"/></g><g style="fill:#1f7144;fill-opacity:1;stroke:none" transform="translate(0 -111.731)"><path d="M0 709.429h37.442v20.217H0z" class="st5" style="fill:#1f7144;stroke:none;stroke-width:.25;fill-opacity:1"/></g><g style="fill:#1f7144;fill-opacity:1;stroke:none" transform="translate(45.385 -84.122)"><path d="M0 709.429h37.442v20.217H0z" class="st5" style="fill:#1f7144;stroke:none;stroke-width:.25;fill-opacity:1"/></g><g style="fill:#1f7144;fill-opacity:1;stroke:none" transform="translate(0 -84.214)"><path d="M0 709.429h37.442v20.217H0z" class="st5" style="fill:#1f7144;stroke:none;stroke-width:.25;fill-opacity:1"/></g><g style="fill:#1f7144;fill-opacity:1;stroke:none" transform="translate(45.385 -56.135)"><path d="M0 709.429h37.442v20.217H0z" class="st5" style="fill:#1f7144;stroke:none;stroke-width:.25;fill-opacity:1"/></g><g style="fill:#1f7144;fill-opacity:1;stroke:none" transform="translate(0 -56.135)"><path d="M0 709.429h37.442v20.217H0z" class="st5" style="fill:#1f7144;stroke:none;stroke-width:.25;fill-opacity:1"/></g><g style="fill:#1f7144;fill-opacity:1;stroke:none" transform="translate(45.385 -27.827)"><path d="M0 709.429h37.442v20.217H0z" class="st5" style="fill:#1f7144;stroke:none;stroke-width:.25;fill-opacity:1"/></g><g style="fill:#1f7144;fill-opacity:1;stroke:none" transform="translate(0 -28.01)"><path d="M0 709.429h37.442v20.217H0z" class="st5" style="fill:#1f7144;stroke:none;stroke-width:.25;fill-opacity:1"/></g><g style="fill:#1f7144;fill-opacity:1;stroke:none" transform="translate(45.385)"><path d="M0 709.429h37.442v20.217H0z" class="st5" style="fill:#1f7144;stroke:none;stroke-width:.25;fill-opacity:1"/></g><g style="fill:#1f7144;fill-opacity:1;stroke:none"><path d="M0 709.429h37.442v20.217H0z" class="st5" style="fill:#1f7144;stroke:none;stroke-width:.25;fill-opacity:1"/></g></g><path d="M27.89 134.254V-22.2L-66.394-6.558v125.164Z" class="st25" style="fill:url(#b);fill-opacity:1;stroke:none;stroke-width:.176456" transform="translate(66.394 22.199)"/><g style="stroke:none" transform="matrix(.70582 0 0 .70582 24.599 -408.198)"><path d="m17.42 652.12 9.25 24.04c.667 1.42.967 2.944 1.12 3.97-.07-1.195.181-2.129.86-3.97l10.96-25.36 16.84-1a1097.458 1097.458 0 0 0-19.67 39.36l20.51 40.49-18.15-1.08-11.03-26.42c-.863-1.993-.696-2.264-.87-3.24-.08.695-.108 1.265-.57 2.52l-11.1 25.74L0 726.24l18-36.54-16.2-36.65Z" class="st24" style="fill:#fff;stroke:none;stroke-width:.75"/></g></svg>